<svg xmlns="http://www.w3.org/2000/svg" xmlns:xlink="http://www.w3.org/1999/xlink" width="80" height="80" viewBox="0 0 80 80">
  <defs>
    <clipPath id="clip-path">
      <rect id="headphones_1_Background_Mask_" data-name="headphones 1 (Background/Mask)" width="37" height="37" fill="none"/>
    </clipPath>
  </defs>
  <g id="icon_support" data-name="icon support" transform="translate(0 -6)">
    <circle id="Ellipse_10" data-name="Ellipse 10" cx="40" cy="40" r="40" transform="translate(0 6)" fill="rgba(253,231,0,0.5)" opacity="0.4"/>
    <g id="headphones_1" data-name="headphones 1" transform="translate(21 26)">
      <rect id="headphones_1_Background_Mask_2" data-name="headphones 1 (Background/Mask)" width="37" height="37" fill="none"/>
      <g id="headphones_1-2" data-name="headphones 1" clip-path="url(#clip-path)">
        <path id="Vector" d="M0,23.125v-9.25a13.875,13.875,0,0,1,27.75,0v9.25" transform="translate(4.625 4.625)" fill="none" stroke="#ffdb64" stroke-linecap="round" stroke-linejoin="round" stroke-width="3" stroke-dasharray="0 0"/>
        <path id="Vector-2" data-name="Vector" d="M24.666,10.792H23.125a3.084,3.084,0,0,1-3.082-3.083V3.083A3.063,3.063,0,0,1,20.945.9a3.1,3.1,0,0,1,2.18-.9H27.75V7.708a3.1,3.1,0,0,1-.9,2.18A3.064,3.064,0,0,1,24.666,10.792Zm-20.041,0H3.083A3.064,3.064,0,0,1,.9,9.888,3.1,3.1,0,0,1,0,7.708V0H4.625A3.084,3.084,0,0,1,7.708,3.083V7.708a3.1,3.1,0,0,1-.9,2.18A3.06,3.06,0,0,1,4.625,10.792Z" transform="translate(4.625 21.583)" fill="none" stroke="#ffdb64" stroke-linecap="round" stroke-linejoin="round" stroke-width="3" stroke-dasharray="0 0"/>
      </g>
    </g>
  </g>
</svg>
