<svg xmlns="http://www.w3.org/2000/svg" width="80" height="80" viewBox="0 0 80 80">
  <g id="icon_bike" data-name="icon bike" transform="translate(0 -6)">
    <circle id="Ellipse_10" data-name="Ellipse 10" cx="40" cy="40" r="40" transform="translate(0 6)" fill="rgba(218,116,92,0.2)" opacity="0.4"/>
    <g id="zap_1" data-name="zap 1" transform="translate(20.131 28)">
      <rect id="zap_1_Background_Mask_" data-name="zap 1 (Background/Mask)" width="36" height="36" transform="translate(1.869)" fill="none"/>
      <g id="Gruppe_57" data-name="Gruppe 57" transform="translate(0 1.601)">
        <g id="Gruppe_52" data-name="Gruppe 52">
          <path id="Pfad_3" data-name="Pfad 3" d="M1.5,1.5H3.522L4.878,8.27a1.011,1.011,0,0,0,1.011.814H10.8a1.011,1.011,0,0,0,1.011-.814l.809-4.242h-8.6" transform="translate(-1.173 7.65)" fill="none" stroke="#da814d" stroke-linejoin="round" stroke-width="1.5"/>
          <path id="Icon_awesome-leaf" data-name="Icon awesome-leaf" d="M4.436.079a.126.126,0,0,0-.23-.01A1.392,1.392,0,0,1,2.989.782h-.65A1.563,1.563,0,0,0,.779,2.347a1.616,1.616,0,0,0,.012.167,3.878,3.878,0,0,1,2.327-.689.13.13,0,0,1,0,.261,3.211,3.211,0,0,0-3.1,1.728.26.26,0,0,0,.482.2,2.143,2.143,0,0,1,.584-.738A1.554,1.554,0,0,0,2.506,3.9,2.486,2.486,0,0,0,4.679,1.258,2.971,2.971,0,0,0,4.436.079Z" transform="matrix(0.914, -0.407, 0.407, 0.914, 5.479, 7.408)" fill="#da814d"/>
          <path id="Icon_awesome-leaf-2" data-name="Icon awesome-leaf" d="M4.437,4.093a.126.126,0,0,1-.23.01A1.392,1.392,0,0,0,2.989,3.39h-.65A1.563,1.563,0,0,1,.779,1.826a1.616,1.616,0,0,1,.012-.167,3.878,3.878,0,0,0,2.327.689.13.13,0,0,0,0-.261A3.211,3.211,0,0,1,.019.359.26.26,0,0,1,.5.161,2.143,2.143,0,0,0,1.085.9,1.554,1.554,0,0,1,2.506.27,2.486,2.486,0,0,1,4.679,2.915,2.971,2.971,0,0,1,4.437,4.093Z" transform="matrix(-0.914, -0.407, 0.407, -0.914, 6.768, 11.22)" fill="#da814d"/>
          <path id="Icon_material-directions-bike" data-name="Icon material-directions-bike" d="M25.305,8.78A3.265,3.265,0,1,0,22.04,5.515,3.275,3.275,0,0,0,25.305,8.78ZM8.163,19.392a8.163,8.163,0,0,0,0,16.326,8.163,8.163,0,1,0,0-16.326Zm0,13.877a5.714,5.714,0,1,1,0-11.428,5.714,5.714,0,1,1,0,11.428Zm9.469-16.326,3.918-3.918,1.306,1.306a11.438,11.438,0,0,0,8.326,3.428V14.495a8.111,8.111,0,0,1-5.877-2.449l-3.1-3.1a4,4,0,0,0-2.612-.98,2.74,2.74,0,0,0-2.286.98l-4.571,4.571a3.223,3.223,0,0,0-.98,2.286,2.74,2.74,0,0,0,.98,2.286l5.224,4.571v8.163h3.265V20.7l-3.592-3.755ZM31.02,19.392a8.163,8.163,0,1,0,8.163,8.163A8.084,8.084,0,0,0,31.02,19.392Zm0,13.877a5.714,5.714,0,1,1,5.714-5.714A5.785,5.785,0,0,1,31.02,33.27Z" transform="translate(0 -2.25)" fill="#da814d"/>
        </g>
      </g>
    </g>
  </g>
</svg>
