<svg xmlns="http://www.w3.org/2000/svg" width="472.662" height="517.079" viewBox="0 0 472.662 517.079">
  <g id="Gruppe_85" data-name="Gruppe 85" transform="translate(-958.636 -436.293)" opacity="0.85">
    <path id="Pfad_5300" data-name="Pfad 5300" d="M14961.935,9.674l3.727-13.235L14946.4-8.1l15.535-8.357h35.169l35.7,38.92,8.486,26.4h25.621l7.96,54.337v17.239l18.535,35.817,26.952,26.585,4.271,60.069h-24.937v28.566l-24.821,12.731-17.105,11.233-9.937,10.859v13.854l19.083,44.99,7.96,26.585-7.96,15.727v16.1l7.96,23.59-7.96,9.361-9.146,17.6h-48.159l-32.684,18.5-38.337-11.871-32.71-6.628H14882.1l-19.982-6.729-21.887-14.74-16.6-10.207-13.6,10.207-9.451,14.74,27.575,20.36V492.6H14788.7l-26.848-4.868h-27.929s-20.764-.068-25.671,0-28.338,0-28.338,0l-9.829-13.631-6.049-21.469,6.049-24.918,9.829-29.084V345.717l28.338-50.279,9.448-46.517,23.535-38.045,28.987-36.818,30.354-33.5,13.261-45.117,14.314-13.6-14.314-32.976v-26.4l26.4,12.047V22.459h13.148l17.6,20.893h11.122V56.458l23.773-7.6,9.26-19.248h16.476L14956.325,16Z" transform="translate(-13693.332 452.754)" fill="#d3dbcc"/>
    <path id="Pfad_5301" data-name="Pfad 5301" d="M14961.935,9.674l3.727-13.235L14946.4-8.1l15.535-8.357h35.169l35.7,38.92,8.486,26.4h25.621l7.96,54.337v17.239l18.535,35.817,26.952,26.585,4.271,60.069h-24.937v28.566l-24.821,12.731-17.105,11.233-9.937,10.859v13.854l19.083,44.99,7.96,26.585-7.96,15.727v16.1l7.96,23.59-7.96,9.361-9.146,17.6h-48.159l-32.684,18.5-38.337-11.871-32.71-6.628H14882.1l-19.982-6.729-21.887-14.74-16.6-10.207-13.6,10.207-9.451,14.74,27.575,20.36V492.6H14788.7l-26.848-4.868h-27.929s-20.764-.068-25.671,0-28.338,0-28.338,0l-9.829-13.631-6.049-21.469,6.049-24.918,9.829-29.084V345.717l28.338-50.279,9.448-46.517,23.535-38.045,28.987-36.818,30.354-33.5,13.261-45.117,14.314-13.6-14.314-32.976v-26.4l26.4,12.047V22.459h13.148l17.6,20.893h11.122V56.458l23.773-7.6,9.26-19.248h16.476L14956.325,16Z" transform="translate(-13703.332 458.604)" fill="none" stroke="#66824f" stroke-width="4"/>
    <g id="Gruppe_84" data-name="Gruppe 84">
      <path id="Pfad_5304" data-name="Pfad 5304" d="M225.149,271.634l-.311-3.735-3.112-3.112-1.867-.286-2.179-.336-7.781,1.867-4.046-1.556-6.225-1.245-.622-2.49-3.112,1.245-16.5-4.357-.622-4.668-5.913,2.8-9.026-1.867-1.867,6.847-3.424,1.556-.311-.112-.622,1.668.311,4.98-6.536,4.357,3.735,1.245-.934,2.49-9.648,4.357,4.357,3.112-1.556,1.245.622,2.49,3.424.934,2.179,5.913-1.245,2.49,2.49,3.424,3.424,1.556-3.735,4.98,4.98,5.291,2.49-.311v-5.291l6.536.311,3.112,2.179-.311,4.98,4.357,2.8,4.668,8.092,4.357-1.245.934,2.179,4.98-.311.5-.025-.187-3.71,4.046-.934,5.291-8.714,4.357-.622,5.6,4.046,5.291-1.245,6.847,4.668-.622-2.49,2.179-2.179,2.49-3.424-1.556-6.225,1.245-2.49-11.2-7.781v-3.424l10.893-3.424.934-2.8-2.179-4.668,3.424-1.245,3.112-4.98Z" transform="translate(1012.422 497.615)" fill="rgba(255,255,255,0.65)" stroke="#5e7c46" stroke-width="1"/>
      <path id="Pfad_5305" data-name="Pfad 5305" d="M165.95,307.18l3.735-4.98-3.424-1.556-2.49-3.424,1.245-2.49-2.179-5.913-3.424-.934-.622-2.49,1.556-1.245-4.357-3.112,9.648-4.357.934-2.49-3.735-1.245,6.536-4.357-.311-4.98.622-1.668-6.847-2.378-2.179-3.112H149.143l-9.026-2.49-4.046.934.311,3.735-5.913.622,3.112,5.913-4.357,2.8,3.735,4.668-.622,2.8h-4.668l-3.112,2.8-2.49-4.98h-3.424l-6.225-3.424v-9.959l-4.357-2.49-4.98,9.026,3.424,5.6.311,6.225-6.847,2.49,1.556,6.225-1.556,2.8,1.556,7.781,1.867.311.311,4.98-5.6,4.357-.311.523,1.245.722,9.337,1.245,5.913-1.867,8.4,1.556v-3.112l4.98-.311,1.556,3.112,5.291.934,5.6,9.026-1.867,3.112,6.225,9.648,3.336-.56-.224-3.486,4.668-2.179,4.668-3.735,3.735-.934,2.8-3.424,4.046-.311,3.424-2.179v-2.49Z" transform="translate(1000.971 497.859)" fill="rgba(255,255,255,0.65)" stroke="#5e7c46" stroke-width="1"/>
      <path id="Pfad_5306" data-name="Pfad 5306" d="M95.439,218.1l-3.4.162,3.735,5.291-3.424,4.98.622,10.893,3.735,4.668,3.424.622,1.245,1.556-3.735,16.5-3.424,1.556,2.8,1.556,7.47,11.2,4.98-9.026,4.357,2.49v9.959l6.225,3.424h3.424l2.49,4.98,3.112-2.8h4.668l.622-2.8-3.735-4.668,4.357-2.8-3.112-5.913,5.913-.622-.311-3.735,4.046-.934,9.026,2.49h11.516l2.179,3.112,6.847,2.378.311.112,3.424-1.556,1.867-6.847-.311-5.913,8.714-4.98-.311-2.179L174.6,243.47l-.149-.112-.56.735-1.867,3.424-7.158.311-2.179-6.225-5.913,2.49-4.98-2.8,4.046-6.225-2.49-.934-1.867-2.49-3.112,1.556-3.112-1.556,3.112-3.112-.622-3.424-2.8,1.556-1.867-3.424L132.5,218.883l-8.752-8.453v-.05l-4.32.411-.311,4.357-3.424,3.112L109.158,222l-9.648-.622-4.046-2.8Z" transform="translate(999.563 487.186)" fill="rgba(255,255,255,0.65)" stroke="#5e7c46" stroke-width="1"/>
      <path id="Pfad_5307" data-name="Pfad 5307" d="M137.694,232.119l1.867,3.424,2.8-1.556.622,3.424-3.112,3.112,3.112,1.556,3.112-1.556,1.867,2.49,2.49.934-4.046,6.225,4.98,2.8,5.913-2.49,2.179,6.225,7.158-.311,1.867-3.424.56-.735,3.175-4.245-1.867-4.357,1.245-1.867-1.245-1.245-1.245-6.847-.622-4.98,7.47,2.49.311-14.317,4.046-.934.934-2.179,5.291-5.913v-2.8l2.49-3.112-2.8-2.8-4.046.311.934-5.6-5.291-3.424,1.232-1.643-.3-.224-4.668.311-4.046-6.847-1.867.934-4.046-7.158-1.9-.224-.012.062-.261,4.208-4.98.622-4.98-2.8-1.867-.622-2.49,3.424-1.867-1.867-4.668,1.867-.934,4.98-3.112.622-1.867-2.8,1.556-3.112-3.424-.934-1.145-1.594-9.125-.274L120.7,174.13l-2.3,1.345-4.357.311,4.046,1.867.622,2.179-2.8,1.556,4.668,2.8,1.867,4.046-.934,2.8-1.245,4.046,6.225-4.357,2.8.934-.622,8.714-4.98,7.781-.622,4.98-2.179,1.556-.311,4.357-2.216.212v.05l8.752,8.453Z" transform="translate(1004.951 478.307)" fill="rgba(255,255,255,0.65)" stroke="#5e7c46" stroke-width="1"/>
      <path id="Pfad_5308" data-name="Pfad 5308" d="M202.3,186.144l1.867-4.357-.622-2.49-7.781-1.245-3.112.622-.622-4.98-4.668-3.735L183,171.827l.311,2.179-4.98,3.112,1.556.311v1.245l-1.245,1.867,3.112-.934L183,180.853l-2.179,2.49,1.245,2.49-2.179-.934-4.357,1.245-2.49-.622-3.112,2.179-1.569,2.091-1.232,1.643,5.291,3.424-.934,5.6,4.046-.311,2.8,2.8-2.49,3.112v2.8l-5.291,5.913-.934,2.179-4.046.934-.311,14.317-7.47-2.49.622,4.98,1.245,6.847,1.245,1.245-1.245,1.867,1.867,4.357,1.245.622,2.49,2.8,7.47,2.8,1.245-4.046-.311-4.98,4.98-.934.311-3.735,9.959-7.158,7.781.311,5.291,3.424,1.867-4.668,4.046.622,3.424-7.158,3.735,1.867,1.867,3.424,3.523-.8-.1-.448,3.424-6.847-7.158-9.959h-5.291v-2.179l1.556-3.424-.622-1.867,2.017-.125L204.163,198.9l2.8-2.8.237-.261-1.481-1.295Z" transform="translate(1015.666 477.286)" fill="rgba(255,255,255,0.65)" stroke="#5e7c46" stroke-width="1"/>
      <path id="Pfad_5309" data-name="Pfad 5309" d="M198.078,195.6l-.237.261-2.8,2.8,10.109,7.656,2.963-.187,7.47,1.245,4.98,3.112,5.6-.311-4.357-8.4,5.913-1.556,1.245-3.112,2.179-4.668h5.913V191.19l-8.092-4.668-2.8-7.47-.311-4.046-3.735-4.046-5.291,4.046h-2.49l-1.344-2.913-3.635-.2v7.47l-3.735.934-2.8-2.49-2.179,5.291,1.245,9.026-.622,4.046-2.179.311Z" transform="translate(1024.791 477.531)" fill="rgba(255,255,255,0.65)" stroke="#5e7c46" stroke-width="1"/>
      <path id="Pfad_5310" data-name="Pfad 5310" d="M200.79,208.18v2.179h5.291l7.158,9.959-3.424,6.847.1.448,3.324-.759,1.245,2.49,3.112-.622-.934,2.49,3.735,4.046,1.556-.311h2.8l1.867.934,4.668.311,1.556-2.8,3.424.622-2.179,2.8,2.179,4.668,1.867-.622,8.714,4.357.934-1.867,2.8.311,4.357-2.179,4.357,4.046-1.245,3.424,3.735-2.179,10.893-3.424,2.577.3.187.012.037-.311-3.424-3.424,5.6-4.357-.311-9.337-8.4-4.357,2.179-1.867.311-4.357h-4.357l-4.668-1.867v-7.158l-2.179-2.49,1.867-.622-.311-3.424,3.112-4.98-1.12-1.743-1.681-2.614-4.357-2.179-3.735.311-3.424,3.424-.934-4.357-2.179-2.49-.934,3.424-4.357-.622-1.245,1.556-5.291-.934h-5.913l-2.179,4.668-1.245,3.112L220.4,198.22l4.357,8.4-5.6.311-4.98-3.112-7.47-1.245-2.963.187-2.017.125.622,1.867Z" transform="translate(1026.199 481.082)" fill="rgba(255,255,255,0.65)" stroke="#5e7c46" stroke-width="1"/>
      <path id="Pfad_5311" data-name="Pfad 5311" d="M219.3,263.328l-5.291-2.49,3.112-5.913.622-3.424-1.867-.622v-2.8l4.668-2.49-2.49-3.112.311-3.735,4.668-.622.311-4.668-2.8-.311-.311-1.556-3.735-2.8.311-7.781-1.867-3.424-3.735-1.867-3.424,7.158-4.046-.622-1.867,4.668-5.291-3.424-7.781-.311-9.959,7.158-.311,3.735-4.98.934.311,4.98-1.245,4.046-7.47-2.8-2.49-2.8-1.245-.622-3.175,4.245.149.112,10.183,7.781.311,2.179-8.714,4.98.311,5.913,9.026,1.867,5.913-2.8.622,4.668,16.5,4.357,3.112-1.245.622,2.49L202.5,273.6l4.046,1.556,7.781-1.867,2.179.336V273.6l-2.49-2.8Z" transform="translate(1015.777 488.491)" fill="#5e7c46" stroke="#5e7c46" stroke-width="1"/>
      <path id="Pfad_5312" data-name="Pfad 5312" d="M235.719,225.868l-3.424-.622-1.556,2.8-4.668-.311L224.2,226.8h-2.8l-1.556.311-3.735-4.046.934-2.49-3.112.622-1.245-2.49-3.324.759-3.523.8-.311,7.781,3.735,2.8.311,1.556,2.8.311-.311,4.668-4.668.622-.311,3.735,2.49,3.112-4.668,2.49v2.8l1.867.622-.622,3.424L203.04,260.1l5.291,2.49-5.291,7.47,2.49,2.8v.025l1.867.286,3.112,3.112.311,3.735,5.913,2.8-3.112,4.98-3.424,1.245,2.179,4.668,4.668-.934,11.827,2.8,8.4,8.714,6.536,9.959,3.112-.311,7.781-2.179.622,2.49,4.98-3.112-.685-4.133-.249-1.469.934-2.179,4.668-1.867-.934-2.179-2.179-4.357,5.913-2.8-1.867-5.6,7.158-2.8,1.556-5.913-.934-9.026h6.225l1.245-4.668,1.245.934,1.245-.934-4.668-12.138-3.735-2.8L274.71,235.5l-2.577-.3-10.893,3.424-3.735,2.179,1.245-3.424-4.357-4.046-4.357,2.179-2.8-.311-.934,1.867-8.714-4.357-1.867.622-2.179-4.668Z" transform="translate(1026.75 489.226)" fill="rgba(255,255,255,0.65)" stroke="#5e7c46" stroke-width="1"/>
    </g>
    <g id="zap_1" data-name="zap 1" transform="translate(1201 726)">
      <rect id="zap_1_Background_Mask_" data-name="zap 1 (Background/Mask)" width="18.188" height="18.188" transform="translate(0.944)" fill="none"/>
      <g id="Gruppe_57" data-name="Gruppe 57" transform="translate(0 0.809)">
        <g id="Gruppe_52" data-name="Gruppe 52">
          <path id="Pfad_3" data-name="Pfad 3" d="M1.5,1.5H2.522l.685,3.42a.511.511,0,0,0,.511.411H6.2a.511.511,0,0,0,.511-.411L7.12,2.777H2.777" transform="translate(-1.335 3.123)" fill="none" stroke="#fff" stroke-linejoin="round" stroke-width="1"/>
          <path id="Icon_awesome-leaf" data-name="Icon awesome-leaf" d="M2.241.04a.064.064,0,0,0-.116,0A.7.7,0,0,1,1.51.4H1.182a.789.789,0,0,0-.788.79A.817.817,0,0,0,.4,1.27,1.959,1.959,0,0,1,1.576.922a.066.066,0,0,1,0,.132A1.622,1.622,0,0,0,.01,1.927a.132.132,0,0,0,.243.1,1.083,1.083,0,0,1,.3-.373.785.785,0,0,0,.718.318A1.256,1.256,0,0,0,2.364.635a1.5,1.5,0,0,0-.122-.6Z" transform="matrix(0.914, -0.407, 0.407, 0.914, 2.768, 3.743)" fill="#fff"/>
          <path id="Icon_awesome-leaf-2" data-name="Icon awesome-leaf" d="M2.241,2.068a.064.064,0,0,1-.116,0,.7.7,0,0,0-.615-.36H1.182A.789.789,0,0,1,.394.922.817.817,0,0,1,.4.838a1.959,1.959,0,0,0,1.176.348.066.066,0,0,0,0-.132A1.622,1.622,0,0,1,.01.181a.132.132,0,0,1,.243-.1,1.083,1.083,0,0,0,.3.373A.785.785,0,0,1,1.266.136a1.256,1.256,0,0,1,1.1,1.336A1.5,1.5,0,0,1,2.241,2.068Z" transform="matrix(-0.914, -0.407, 0.407, -0.914, 3.419, 5.669)" fill="#fff"/>
          <path id="Icon_material-directions-bike" data-name="Icon material-directions-bike" d="M12.785,5.549a1.65,1.65,0,1,0-1.65-1.65A1.655,1.655,0,0,0,12.785,5.549ZM4.124,10.911a4.124,4.124,0,0,0,0,8.248,4.124,4.124,0,0,0,0-8.248Zm0,7.011a2.887,2.887,0,1,1,0-5.774,2.887,2.887,0,1,1,0,5.774ZM8.908,9.673l1.98-1.98.66.66a5.778,5.778,0,0,0,4.207,1.732V8.436A4.1,4.1,0,0,1,12.785,7.2L11.218,5.632A2.022,2.022,0,0,0,9.9,5.137a1.384,1.384,0,0,0-1.155.495l-2.31,2.31A1.628,1.628,0,0,0,5.939,9.1a1.384,1.384,0,0,0,.495,1.155l2.639,2.31v4.124h1.65V11.571l-1.815-1.9Zm6.764,1.237A4.124,4.124,0,1,0,19.8,15.035,4.084,4.084,0,0,0,15.672,10.911Zm0,7.011a2.887,2.887,0,1,1,2.887-2.887A2.922,2.922,0,0,1,15.672,17.922Z" transform="translate(0 -2.25)" fill="#fff"/>
        </g>
      </g>
    </g>
  </g>
</svg>
