<svg xmlns="http://www.w3.org/2000/svg" width="107.276" height="15.895" viewBox="0 0 107.276 15.895">
  <g id="stars_rating" data-name="stars rating" transform="translate(-1259.362 -1656.545)">
    <path id="Path" d="M11.056,5.014,8.674.186a.377.377,0,0,0-.651,0L5.64,5.013.311,5.788a.363.363,0,0,0-.2.619l3.856,3.758-.91,5.306a.363.363,0,0,0,.526.383l4.766-2.505,4.766,2.5a.363.363,0,0,0,.526-.382l-.91-5.305,3.856-3.758a.363.363,0,0,0-.2-.619h0Z" transform="translate(1259.362 1656.545)" fill="#ffdb64"/>
    <path id="Path-2" data-name="Path" d="M11.056,5.014,8.674.186a.377.377,0,0,0-.651,0L5.64,5.013.311,5.788a.363.363,0,0,0-.2.619l3.856,3.758-.91,5.306a.363.363,0,0,0,.526.383l4.766-2.505,4.766,2.5a.363.363,0,0,0,.526-.382l-.91-5.305,3.856-3.758a.363.363,0,0,0-.2-.619h0Z" transform="translate(1282.008 1656.545)" fill="#ffdb64"/>
    <path id="Path-3" data-name="Path" d="M11.056,5.014,8.674.186a.377.377,0,0,0-.651,0L5.64,5.013.311,5.788a.363.363,0,0,0-.2.619l3.856,3.758-.91,5.306a.363.363,0,0,0,.526.383l4.766-2.505,4.766,2.5a.363.363,0,0,0,.526-.382l-.91-5.305,3.856-3.758a.363.363,0,0,0-.2-.619h0Z" transform="translate(1304.652 1656.545)" fill="#ffdb64"/>
    <path id="Path-4" data-name="Path" d="M11.056,5.014,8.674.186a.377.377,0,0,0-.651,0L5.64,5.013.311,5.788a.363.363,0,0,0-.2.619l3.856,3.758-.91,5.306a.363.363,0,0,0,.526.383l4.766-2.505,4.766,2.5a.363.363,0,0,0,.526-.382l-.91-5.305,3.856-3.758a.363.363,0,0,0-.2-.619h0Z" transform="translate(1327.298 1656.545)" fill="#ffdb64"/>
    <path id="Path-5" data-name="Path" d="M11.056,5.014,8.674.186a.377.377,0,0,0-.651,0L5.64,5.013.311,5.788a.363.363,0,0,0-.2.619l3.856,3.758-.91,5.306a.363.363,0,0,0,.526.383l4.766-2.505,4.766,2.5a.363.363,0,0,0,.526-.382l-.91-5.305,3.856-3.758a.363.363,0,0,0-.2-.619h0Z" transform="translate(1349.943 1656.545)" fill="#ffdb64"/>
  </g>
</svg>
